<?xml version="1.0" encoding="utf-8"?>
<!-- Generator: Adobe Illustrator 16.0.4, SVG Export Plug-In . SVG Version: 6.00 Build 0)  -->
<!DOCTYPE svg PUBLIC "-//W3C//DTD SVG 1.1//EN" "http://www.w3.org/Graphics/SVG/1.1/DTD/svg11.dtd">
<svg version="1.1" id="Layer_1" xmlns="http://www.w3.org/2000/svg" xmlns:xlink="http://www.w3.org/1999/xlink" x="0px" y="0px"
	 width="41.166px" height="34.832px" viewBox="113.285 83.203 41.166 34.832" enable-background="new 113.285 83.203 41.166 34.832"
	 xml:space="preserve">
<g id="Layer_3">
	<path fill="none" stroke="#000000" stroke-width="2.7304" stroke-miterlimit="10" d="M126.02,85.372h-8.645
		c-1.13,0-2.048,0.917-2.048,2.048v6.143c0,1.131,0.917,2.048,2.048,2.048h6.599c1.131,0,2.046,0.917,2.046,2.048v16.162
		c0,1.132,0.917,2.046,2.049,2.046h3.763c1.132,0,2.049-0.914,2.049-2.046V103.69V87.419c0-1.131,0.916-2.048,2.048-2.048h3.738
		c1.132,0,2.048,0.917,2.048,2.048v16.162c0,1.13,0.917,2.048,2.048,2.048h6.599c1.131,0,2.048,0.916,2.048,2.048v6.143
		c0,1.132-0.917,2.046-2.048,2.046h-8.646"/>
</g>
<g id="Layer_2">
</g>
</svg>
